<svg xmlns="http://www.w3.org/2000/svg" width="1440" height="900"><path d="M748,521L695,399L480,534Z" fill="#fb6d4d" stroke="#fb6d4d" stroke-width="1.51"/><path d="M480,534L591,672L748,521Z" fill="#f86648" stroke="#f86648" stroke-width="1.51"/><path d="M591,672L678,748L748,521Z" fill="#f5593e" stroke="#f5593e" stroke-width="1.51"/><path d="M695,399L476,273L480,534Z" fill="#fc7c5b" stroke="#fc7c5b" stroke-width="1.51"/><path d="M476,273L371,340L480,534Z" fill="#fc8564" stroke="#fc8564" stroke-width="1.51"/><path d="M748,521L918,302L695,399Z" fill="#fa6a4a" stroke="#fa6a4a" stroke-width="1.51"/><path d="M678,748L907,541L748,521Z" fill="#f6553b" stroke="#f6553b" stroke-width="1.51"/><path d="M476,273L292,210L371,340Z" fill="#fd9575" stroke="#fd9575" stroke-width="1.51"/><path d="M695,399L501,216L476,273Z" fill="#fc8665" stroke="#fc8665" stroke-width="1.51"/><path d="M637,118L501,216L695,399Z" fill="#fc8766" stroke="#fc8766" stroke-width="1.51"/><path d="M480,534L266,770L591,672Z" fill="#f66b4e" stroke="#f66b4e" stroke-width="1.51"/><path d="M591,672L501,881L678,748Z" fill="#ec583f" stroke="#ec583f" stroke-width="1.51"/><path d="M371,340L258,601L480,534Z" fill="#fc8061" stroke="#fc8061" stroke-width="1.51"/><path d="M907,541L918,302L748,521Z" fill="#f85f42" stroke="#f85f42" stroke-width="1.51"/><path d="M887,171L637,118L695,399Z" fill="#fc7f5f" stroke="#fc7f5f" stroke-width="1.51"/><path d="M266,770L501,881L591,672Z" fill="#ec6349" stroke="#ec6349" stroke-width="1.51"/><path d="M918,302L887,171L695,399Z" fill="#fa7254" stroke="#fa7254" stroke-width="1.51"/><path d="M258,601L266,770L480,534Z" fill="#f97659" stroke="#f97659" stroke-width="1.51"/><path d="M371,340L165,518L258,601Z" fill="#fd896a" stroke="#fd896a" stroke-width="1.51"/><path d="M501,216L292,210L476,273Z" fill="#fc9676" stroke="#fc9676" stroke-width="1.51"/><path d="M469,-33L292,210L501,216Z" fill="#fda182" stroke="#fda182" stroke-width="1.51"/><path d="M258,601L140,802L266,770Z" fill="#f3795d" stroke="#f3795d" stroke-width="1.51"/><path d="M102,352L165,518L371,340Z" fill="#fe9676" stroke="#fe9676" stroke-width="1.51"/><path d="M678,748L992,784L907,541Z" fill="#ef4632" stroke="#ef4632" stroke-width="1.51"/><path d="M907,541L1184,515L918,302Z" fill="#f5533b" stroke="#f5533b" stroke-width="1.51"/><path d="M694,995L992,784L678,748Z" fill="#e24230" stroke="#e24230" stroke-width="1.51"/><path d="M501,881L694,995L678,748Z" fill="#e24f39" stroke="#e24f39" stroke-width="1.51"/><path d="M560,1131L694,995L501,881Z" fill="#d54e39" stroke="#d54e39" stroke-width="1.51"/><path d="M292,210L102,352L371,340Z" fill="#fd9c7d" stroke="#fd9c7d" stroke-width="1.51"/><path d="M266,770L243,1030L501,881Z" fill="#e3664e" stroke="#e3664e" stroke-width="1.51"/><path d="M-15,693L140,802L258,601Z" fill="#f78266" stroke="#f78266" stroke-width="1.51"/><path d="M-15,693L258,601L165,518Z" fill="#fc896b" stroke="#fc896b" stroke-width="1.51"/><path d="M637,118L469,-33L501,216Z" fill="#fd9b7d" stroke="#fd9b7d" stroke-width="1.51"/><path d="M292,210L172,137L102,352Z" fill="#fda78a" stroke="#fda78a" stroke-width="1.51"/><path d="M685,-67L469,-33L637,118Z" fill="#ffa183" stroke="#ffa183" stroke-width="1.51"/><path d="M1147,719L1184,515L907,541Z" fill="#ec3f2e" stroke="#ec3f2e" stroke-width="1.51"/><path d="M918,302L1160,142L887,171Z" fill="#f87054" stroke="#f87054" stroke-width="1.51"/><path d="M992,784L1147,719L907,541Z" fill="#ea382a" stroke="#ea382a" stroke-width="1.51"/><path d="M1198,905L1147,719L992,784Z" fill="#d92822" stroke="#d92822" stroke-width="1.51"/><path d="M308,-79L172,137L292,210Z" fill="#fdb195" stroke="#fdb195" stroke-width="1.51"/><path d="M887,171L685,-67L637,118Z" fill="#fd9171" stroke="#fd9171" stroke-width="1.51"/><path d="M986,30L685,-67L887,171Z" fill="#fc8c6d" stroke="#fc8c6d" stroke-width="1.51"/><path d="M1184,515L1183,333L918,302Z" fill="#f0583e" stroke="#f0583e" stroke-width="1.51"/><path d="M1160,142L986,30L887,171Z" fill="#f97a5d" stroke="#f97a5d" stroke-width="1.51"/><path d="M694,995L973,1008L992,784Z" fill="#d83629" stroke="#d83629" stroke-width="1.51"/><path d="M102,352L-5,426L165,518Z" fill="#ff9c7e" stroke="#ff9c7e" stroke-width="1.51"/><path d="M-2,197L-5,426L102,352Z" fill="#ffaa8d" stroke="#ffaa8d" stroke-width="1.51"/><path d="M335,1102L560,1131L501,881Z" fill="#d25740" stroke="#d25740" stroke-width="1.51"/><path d="M694,995L869,1117L973,1008Z" fill="#ce3628" stroke="#ce3628" stroke-width="1.51"/><path d="M140,802L243,1030L266,770Z" fill="#e67158" stroke="#e67158" stroke-width="1.51"/><path d="M-5,426L-20,613L165,518Z" fill="#ff977a" stroke="#ff977a" stroke-width="1.51"/><path d="M140,802L45,958L243,1030Z" fill="#e1745d" stroke="#e1745d" stroke-width="1.51"/><path d="M-20,613L-15,693L165,518Z" fill="#fe8e73" stroke="#fe8e73" stroke-width="1.51"/><path d="M243,1030L335,1102L501,881Z" fill="#d76149" stroke="#d76149" stroke-width="1.51"/><path d="M1183,333L1160,142L918,302Z" fill="#f1664b" stroke="#f1664b" stroke-width="1.51"/><path d="M381,-199L308,-79L469,-33Z" fill="#ffb9a1" stroke="#ffb9a1" stroke-width="1.51"/><path d="M469,-33L308,-79L292,210Z" fill="#fdaf93" stroke="#fdaf93" stroke-width="1.51"/><path d="M735,1174L869,1117L694,995Z" fill="#c73b2b" stroke="#c73b2b" stroke-width="1.51"/><path d="M569,1345L735,1174L560,1131Z" fill="#b54231" stroke="#b54231" stroke-width="1.51"/><path d="M560,1131L735,1174L694,995Z" fill="#c84431" stroke="#c84431" stroke-width="1.51"/><path d="M685,-67L500,-169L469,-33Z" fill="#ffad92" stroke="#ffad92" stroke-width="1.51"/><path d="M733,-329L500,-169L685,-67Z" fill="#ffae95" stroke="#ffae95" stroke-width="1.51"/><path d="M-5,426L-225,471L-20,613Z" fill="#ffa186" stroke="#ffa186" stroke-width="1.51"/><path d="M172,137L-2,197L102,352Z" fill="#feae93" stroke="#feae93" stroke-width="1.51"/><path d="M-63,-94L-2,197L172,137Z" fill="#fdc1a9" stroke="#fdc1a9" stroke-width="1.51"/><path d="M1297,700L1320,579L1184,515Z" fill="#de3328" stroke="#de3328" stroke-width="1.51"/><path d="M1184,515L1390,308L1183,333Z" fill="#e5503a" stroke="#e5503a" stroke-width="1.51"/><path d="M973,1008L1198,905L992,784Z" fill="#d42622" stroke="#d42622" stroke-width="1.51"/><path d="M1235,939L1198,905L1175,1100Z" fill="#c31a1c" stroke="#c31a1c" stroke-width="1.51"/><path d="M1297,700L1184,515L1147,719Z" fill="#e13026" stroke="#e13026" stroke-width="1.51"/><path d="M1183,333L1244,117L1160,142Z" fill="#eb684e" stroke="#eb684e" stroke-width="1.51"/><path d="M1198,905L1297,700L1147,719Z" fill="#d52421" stroke="#d52421" stroke-width="1.51"/><path d="M-15,693L45,958L140,802Z" fill="#ee7f67" stroke="#ee7f67" stroke-width="1.51"/><path d="M243,1030L57,1175L335,1102Z" fill="#cb6852" stroke="#cb6852" stroke-width="1.51"/><path d="M986,30L899,-277L685,-67Z" fill="#ff9a7f" stroke="#ff9a7f" stroke-width="1.51"/><path d="M1160,142L1077,-60L986,30Z" fill="#f67f64" stroke="#f67f64" stroke-width="1.51"/><path d="M1160,142L1244,117L1077,-60Z" fill="#ef795e" stroke="#ef795e" stroke-width="1.51"/><path d="M1390,308L1244,117L1183,333Z" fill="#e55e46" stroke="#e55e46" stroke-width="1.51"/><path d="M500,-169L381,-199L469,-33Z" fill="#ffb79f" stroke="#ffb79f" stroke-width="1.51"/><path d="M308,-79L189,-125L172,137Z" fill="#fdbea5" stroke="#fdbea5" stroke-width="1.51"/><path d="M733,-329L381,-199L500,-169Z" fill="#ffb89f" stroke="#ffb89f" stroke-width="1.51"/><path d="M1198,905L1235,939L1297,700Z" fill="#cc1a1d" stroke="#cc1a1d" stroke-width="1.51"/><path d="M1175,1100L1198,905L973,1008Z" fill="#c6201e" stroke="#c6201e" stroke-width="1.51"/><path d="M381,-199L189,-125L308,-79Z" fill="#ffc3ad" stroke="#ffc3ad" stroke-width="1.51"/><path d="M1492,325L1390,308L1320,579Z" fill="#db4a35" stroke="#db4a35" stroke-width="1.51"/><path d="M1320,579L1390,308L1184,515Z" fill="#e14431" stroke="#e14431" stroke-width="1.51"/><path d="M920,1291L1175,1100L869,1117Z" fill="#b5221f" stroke="#b5221f" stroke-width="1.51"/><path d="M869,1117L1175,1100L973,1008Z" fill="#c5251f" stroke="#c5251f" stroke-width="1.51"/><path d="M45,958L57,1175L243,1030Z" fill="#d5725c" stroke="#d5725c" stroke-width="1.51"/><path d="M-15,693L-40,1003L45,958Z" fill="#e8806a" stroke="#e8806a" stroke-width="1.51"/><path d="M-321,964L-40,1003L-15,693Z" fill="#ea8873" stroke="#ea8873" stroke-width="1.51"/><path d="M-316,689L-15,693L-20,613Z" fill="#fe957c" stroke="#fe957c" stroke-width="1.51"/><path d="M1077,-60L899,-277L986,30Z" fill="#fe9177" stroke="#fe9177" stroke-width="1.51"/><path d="M1052,-293L899,-277L1077,-60Z" fill="#ff9780" stroke="#ff9780" stroke-width="1.51"/><path d="M-2,197L-211,360L-5,426Z" fill="#ffb096" stroke="#ffb096" stroke-width="1.51"/><path d="M-213,112L-211,360L-2,197Z" fill="#ffbea6" stroke="#ffbea6" stroke-width="1.51"/><path d="M-211,360L-225,471L-5,426Z" fill="#ffac92" stroke="#ffac92" stroke-width="1.51"/><path d="M301,1395L569,1345L335,1102Z" fill="#b05140" stroke="#b05140" stroke-width="1.51"/><path d="M335,1102L569,1345L560,1131Z" fill="#b94d3b" stroke="#b94d3b" stroke-width="1.51"/><path d="M735,1174L920,1291L869,1117Z" fill="#b53025" stroke="#b53025" stroke-width="1.51"/><path d="M672,1398L920,1291L735,1174Z" fill="#ad3327" stroke="#ad3327" stroke-width="1.51"/><path d="M899,-277L733,-329L685,-67Z" fill="#ffa88e" stroke="#ffa88e" stroke-width="1.51"/><path d="M-40,1003L57,1175L45,958Z" fill="#d87963" stroke="#d87963" stroke-width="1.51"/><path d="M1442,952L1297,700L1235,939Z" fill="#c5161b" stroke="#c5161b" stroke-width="1.51"/><path d="M1442,952L1475,736L1297,700Z" fill="#c61c1d" stroke="#c61c1d" stroke-width="1.51"/><path d="M1297,700L1475,736L1320,579Z" fill="#d42822" stroke="#d42822" stroke-width="1.51"/><path d="M569,1345L672,1398L735,1174Z" fill="#af3d2e" stroke="#af3d2e" stroke-width="1.51"/><path d="M301,1395L672,1398L569,1345Z" fill="#b04838" stroke="#b04838" stroke-width="1.51"/><path d="M1591,522L1492,325L1320,579Z" fill="#d5402e" stroke="#d5402e" stroke-width="1.51"/><path d="M1541,164L1338,-88L1244,117Z" fill="#e07159" stroke="#e07159" stroke-width="1.51"/><path d="M1288,-275L1052,-293L1077,-60Z" fill="#f7917b" stroke="#f7917b" stroke-width="1.51"/><path d="M189,-125L-63,-94L172,137Z" fill="#fdc7b0" stroke="#fdc7b0" stroke-width="1.51"/><path d="M-21,-275L-63,-94L189,-125Z" fill="#fed7c6" stroke="#fed7c6" stroke-width="1.51"/><path d="M189,-298L189,-125L381,-199Z" fill="#ffcbb7" stroke="#ffcbb7" stroke-width="1.51"/><path d="M733,-329L189,-298L381,-199Z" fill="#ffc1ab" stroke="#ffc1ab" stroke-width="1.51"/><path d="M1338,-88L1077,-60L1244,117Z" fill="#ee7d65" stroke="#ee7d65" stroke-width="1.51"/><path d="M899,-277L1052,-293L733,-329Z" fill="#ffa48c" stroke="#ffa48c" stroke-width="1.51"/><path d="M-297,13L-316,689L-225,471Z" fill="#ffb39b" stroke="#ffb39b" stroke-width="1.51"/><path d="M-63,-94L-213,112L-2,197Z" fill="#fecab6" stroke="#fecab6" stroke-width="1.51"/><path d="M1541,164L1244,117L1390,308Z" fill="#de624a" stroke="#de624a" stroke-width="1.51"/><path d="M1295,1169L1235,939L1175,1100Z" fill="#b71519" stroke="#b71519" stroke-width="1.51"/><path d="M1295,1169L1442,952L1235,939Z" fill="#b71318" stroke="#b71318" stroke-width="1.51"/><path d="M57,1175L301,1395L335,1102Z" fill="#b75f4d" stroke="#b75f4d" stroke-width="1.51"/><path d="M-297,13L-225,471L-211,360Z" fill="#ffbca5" stroke="#ffbca5" stroke-width="1.51"/><path d="M-225,471L-316,689L-20,613Z" fill="#ff9e85" stroke="#ff9e85" stroke-width="1.51"/><path d="M-40,1003L-119,1215L57,1175Z" fill="#ca7765" stroke="#ca7765" stroke-width="1.51"/><path d="M1148,1342L1175,1100L920,1291Z" fill="#a4181a" stroke="#a4181a" stroke-width="1.51"/><path d="M1148,1342L1295,1169L1175,1100Z" fill="#a31218" stroke="#a31218" stroke-width="1.51"/><path d="M1492,325L1541,164L1390,308Z" fill="#d75841" stroke="#d75841" stroke-width="1.51"/><path d="M1475,736L1591,522L1320,579Z" fill="#d02e24" stroke="#d02e24" stroke-width="1.51"/><path d="M1694,677L1591,522L1475,736Z" fill="#c42620" stroke="#c42620" stroke-width="1.51"/><path d="M1798,329L1541,164L1492,325Z" fill="#c9533e" stroke="#c9533e" stroke-width="1.51"/><path d="M672,1398L1148,1342L920,1291Z" fill="#aa2721" stroke="#aa2721" stroke-width="1.51"/><path d="M-63,-94L-297,13L-213,112Z" fill="#ffd4c3" stroke="#ffd4c3" stroke-width="1.51"/><path d="M189,-298L-21,-275L189,-125Z" fill="#ffd5c4" stroke="#ffd5c4" stroke-width="1.51"/><path d="M57,1175L81,1428L301,1395Z" fill="#b26353" stroke="#b26353" stroke-width="1.51"/><path d="M-238,1156L-119,1215L-40,1003Z" fill="#cc7d6c" stroke="#cc7d6c" stroke-width="1.51"/><path d="M1579,-229L1288,-275L1338,-88Z" fill="#e58774" stroke="#e58774" stroke-width="1.51"/><path d="M1338,-88L1288,-275L1077,-60Z" fill="#f08973" stroke="#f08973" stroke-width="1.51"/><path d="M1052,-293L1964,-273L733,-329Z" fill="#f2917e" stroke="#f2917e" stroke-width="1.51"/><path d="M-213,112L-297,13L-211,360Z" fill="#ffc7b3" stroke="#ffc7b3" stroke-width="1.51"/><path d="M-226,-197L-297,13L-63,-94Z" fill="#ffded0" stroke="#ffded0" stroke-width="1.51"/><path d="M-316,689L-321,964L-15,693Z" fill="#f5917b" stroke="#f5917b" stroke-width="1.51"/><path d="M-139,1304L81,1428L57,1175Z" fill="#b56d5f" stroke="#b56d5f" stroke-width="1.51"/><path d="M301,1395L81,1428L672,1398Z" fill="#b15444" stroke="#b15444" stroke-width="1.51"/><path d="M-119,1215L-139,1304L57,1175Z" fill="#b97265" stroke="#b97265" stroke-width="1.51"/><path d="M-321,964L-238,1156L-40,1003Z" fill="#dc8572" stroke="#dc8572" stroke-width="1.51"/><path d="M1591,522L1742,496L1492,325Z" fill="#c8402d" stroke="#c8402d" stroke-width="1.51"/><path d="M1636,926L1694,677L1475,736Z" fill="#b7191b" stroke="#b7191b" stroke-width="1.51"/><path d="M1636,926L1475,736L1442,952Z" fill="#b81319" stroke="#b81319" stroke-width="1.51"/><path d="M-21,-275L-226,-197L-63,-94Z" fill="#fee2d5" stroke="#fee2d5" stroke-width="1.51"/><path d="M-238,1156L-139,1304L-119,1215Z" fill="#bb786b" stroke="#bb786b" stroke-width="1.51"/><path d="M1148,1342L1248,1408L1295,1169Z" fill="#9a0d16" stroke="#9a0d16" stroke-width="1.51"/><path d="M1595,1078L1636,926L1442,952Z" fill="#a91016" stroke="#a91016" stroke-width="1.51"/><path d="M672,1398L1248,1408L1148,1342Z" fill="#a71c1c" stroke="#a71c1c" stroke-width="1.51"/><path d="M81,1428L1248,1408L672,1398Z" fill="#af3c2e" stroke="#af3c2e" stroke-width="1.51"/><path d="M1595,1078L1442,952L1295,1169Z" fill="#a91016" stroke="#a91016" stroke-width="1.51"/><path d="M1541,164L1551,-102L1338,-88Z" fill="#db765f" stroke="#db765f" stroke-width="1.51"/><path d="M1770,21L1551,-102L1541,164Z" fill="#cb6d58" stroke="#cb6d58" stroke-width="1.51"/><path d="M1694,677L1742,496L1591,522Z" fill="#bc2f25" stroke="#bc2f25" stroke-width="1.51"/><path d="M1798,329L1742,496L1854,566Z" fill="#b1372a" stroke="#b1372a" stroke-width="1.51"/><path d="M1248,1408L1450,1275L1295,1169Z" fill="#930915" stroke="#930915" stroke-width="1.51"/><path d="M1450,1275L1595,1078L1295,1169Z" fill="#980a15" stroke="#980a15" stroke-width="1.51"/><path d="M1742,496L1798,329L1492,325Z" fill="#c04533" stroke="#c04533" stroke-width="1.51"/><path d="M1854,566L1742,496L1694,677Z" fill="#b12a22" stroke="#b12a22" stroke-width="1.51"/><path d="M1854,566L1694,677L1898,769Z" fill="#a71c1c" stroke="#a71c1c" stroke-width="1.51"/><path d="M1551,-102L1579,-229L1338,-88Z" fill="#dd826e" stroke="#dd826e" stroke-width="1.51"/><path d="M1671,-229L1579,-229L1551,-102Z" fill="#d3806f" stroke="#d3806f" stroke-width="1.51"/><path d="M1798,329L1781,135L1541,164Z" fill="#bf5643" stroke="#bf5643" stroke-width="1.51"/><path d="M1973,283L1839,86L1781,135Z" fill="#b15645" stroke="#b15645" stroke-width="1.51"/><path d="M1898,769L1694,677L1636,926Z" fill="#a61318" stroke="#a61318" stroke-width="1.51"/><path d="M1781,135L1770,21L1541,164Z" fill="#c1624e" stroke="#c1624e" stroke-width="1.51"/><path d="M1839,86L1770,21L1781,135Z" fill="#b5604f" stroke="#b5604f" stroke-width="1.51"/><path d="M1595,1078L1848,1142L1636,926Z" fill="#940a13" stroke="#940a13" stroke-width="1.51"/><path d="M1450,1275L1652,1224L1595,1078Z" fill="#8c0812" stroke="#8c0812" stroke-width="1.51"/><path d="M1739,1293L1652,1224L1450,1275Z" fill="#7e0411" stroke="#7e0411" stroke-width="1.51"/><path d="M-297,13L-356,1334L-316,689Z" fill="#ff9c86" stroke="#ff9c86" stroke-width="1.51"/><path d="M-316,689L-356,1334L-321,964Z" fill="#e28b7a" stroke="#e28b7a" stroke-width="1.51"/><path d="M-321,964L-356,1334L-238,1156Z" fill="#ca8175" stroke="#ca8175" stroke-width="1.51"/><path d="M-238,1156L-356,1334L-139,1304Z" fill="#b8796e" stroke="#b8796e" stroke-width="1.51"/><path d="M-139,1304L-356,1334L81,1428Z" fill="#b77569" stroke="#b77569" stroke-width="1.51"/><path d="M1770,21L1671,-229L1551,-102Z" fill="#c97766" stroke="#c97766" stroke-width="1.51"/><path d="M1579,-229L1671,-229L1288,-275Z" fill="#dd8775" stroke="#dd8775" stroke-width="1.51"/><path d="M1770,21L1899,-61L1671,-229Z" fill="#ba7062" stroke="#ba7062" stroke-width="1.51"/><path d="M1973,283L1781,135L1798,329Z" fill="#b04d3c" stroke="#b04d3c" stroke-width="1.51"/><path d="M1854,566L1973,283L1798,329Z" fill="#af3e2f" stroke="#af3e2f" stroke-width="1.51"/><path d="M1964,935L1898,769L1636,926Z" fill="#950915" stroke="#950915" stroke-width="1.51"/><path d="M1652,1224L1848,1142L1595,1078Z" fill="#840511" stroke="#840511" stroke-width="1.51"/><path d="M1248,1408L1739,1293L1450,1275Z" fill="#8a0713" stroke="#8a0713" stroke-width="1.51"/><path d="M1898,769L1973,283L1854,566Z" fill="#ac2d24" stroke="#ac2d24" stroke-width="1.51"/><path d="M1839,86L1899,-61L1770,21Z" fill="#b36555" stroke="#b36555" stroke-width="1.51"/><path d="M1739,1293L1848,1142L1652,1224Z" fill="#730210" stroke="#730210" stroke-width="1.51"/><path d="M1898,769L1964,935L1973,283Z" fill="#a71c1c" stroke="#a71c1c" stroke-width="1.51"/><path d="M1973,283L1899,-61L1839,86Z" fill="#b25c4c" stroke="#b25c4c" stroke-width="1.51"/><path d="M1848,1142L1964,935L1636,926Z" fill="#8a0713" stroke="#8a0713" stroke-width="1.51"/><path d="M1848,1142L1871,1381L1964,935Z" fill="#750310" stroke="#750310" stroke-width="1.51"/><path d="M1739,1293L1871,1381L1848,1142Z" fill="#67000d" stroke="#67000d" stroke-width="1.51"/><path d="M1248,1408L1871,1381L1739,1293Z" fill="#7d0411" stroke="#7d0411" stroke-width="1.51"/><path d="M1899,-61L1964,-273L1671,-229Z" fill="#b7766a" stroke="#b7766a" stroke-width="1.51"/><path d="M1671,-229L1964,-273L1288,-275Z" fill="#cf8273" stroke="#cf8273" stroke-width="1.51"/><path d="M1288,-275L1964,-273L1052,-293Z" fill="#e48b79" stroke="#e48b79" stroke-width="1.51"/><path d="M1973,283L1964,-273L1899,-61Z" fill="#b46859" stroke="#b46859" stroke-width="1.51"/></svg>