<svg xmlns="http://www.w3.org/2000/svg" width="1440" height="900"><path d="M774,441L612,261L666,468Z" fill="#7ec97e" stroke="#7ec97e" stroke-width="1.51"/><path d="M774,441L820,276L612,261Z" fill="#81ca81" stroke="#81ca81" stroke-width="1.51"/><path d="M612,261L410,424L666,468Z" fill="#8ace87" stroke="#8ace87" stroke-width="1.51"/><path d="M472,92L504,248L612,261Z" fill="#a1d99b" stroke="#a1d99b" stroke-width="1.51"/><path d="M666,468L800,670L774,441Z" fill="#68bd6f" stroke="#68bd6f" stroke-width="1.51"/><path d="M410,424L615,595L666,468Z" fill="#7dc87e" stroke="#7dc87e" stroke-width="1.51"/><path d="M774,441L973,319L820,276Z" fill="#75c379" stroke="#75c379" stroke-width="1.51"/><path d="M968,492L973,319L774,441Z" fill="#67bd70" stroke="#67bd70" stroke-width="1.51"/><path d="M504,248L410,424L612,261Z" fill="#97d492" stroke="#97d492" stroke-width="1.51"/><path d="M800,670L968,492L774,441Z" fill="#5eb96a" stroke="#5eb96a" stroke-width="1.51"/><path d="M820,276L622,49L612,261Z" fill="#94d390" stroke="#94d390" stroke-width="1.51"/><path d="M859,82L622,49L820,276Z" fill="#93d191" stroke="#93d191" stroke-width="1.51"/><path d="M972,131L859,82L820,276Z" fill="#86cb89" stroke="#86cb89" stroke-width="1.51"/><path d="M615,595L800,670L666,468Z" fill="#67bd6f" stroke="#67bd6f" stroke-width="1.51"/><path d="M622,49L472,92L612,261Z" fill="#a4da9f" stroke="#a4da9f" stroke-width="1.51"/><path d="M504,248L327,311L410,424Z" fill="#9dd797" stroke="#9dd797" stroke-width="1.51"/><path d="M973,319L972,131L820,276Z" fill="#7bc680" stroke="#7bc680" stroke-width="1.51"/><path d="M472,92L327,311L504,248Z" fill="#a7dca0" stroke="#a7dca0" stroke-width="1.51"/><path d="M859,82L788,-25L622,49Z" fill="#9dd69b" stroke="#9dd69b" stroke-width="1.51"/><path d="M622,49L514,-102L472,92Z" fill="#b1e0ac" stroke="#b1e0ac" stroke-width="1.51"/><path d="M951,-97L788,-25L859,82Z" fill="#98d299" stroke="#98d299" stroke-width="1.51"/><path d="M800,670L956,640L968,492Z" fill="#4fb163" stroke="#4fb163" stroke-width="1.51"/><path d="M410,424L450,670L615,595Z" fill="#7bc67f" stroke="#7bc67f" stroke-width="1.51"/><path d="M615,595L632,778L800,670Z" fill="#5db669" stroke="#5db669" stroke-width="1.51"/><path d="M321,587L450,670L410,424Z" fill="#83ca86" stroke="#83ca86" stroke-width="1.51"/><path d="M327,311L281,409L410,424Z" fill="#9cd697" stroke="#9cd697" stroke-width="1.51"/><path d="M450,670L632,778L615,595Z" fill="#68bb72" stroke="#68bb72" stroke-width="1.51"/><path d="M800,670L828,830L956,640Z" fill="#49ab5e" stroke="#49ab5e" stroke-width="1.51"/><path d="M973,319L1130,323L972,131Z" fill="#72bf79" stroke="#72bf79" stroke-width="1.51"/><path d="M1124,450L1130,323L973,319Z" fill="#62b66d" stroke="#62b66d" stroke-width="1.51"/><path d="M1124,450L973,319L968,492Z" fill="#5db66a" stroke="#5db66a" stroke-width="1.51"/><path d="M1171,608L1124,450L968,492Z" fill="#4eac60" stroke="#4eac60" stroke-width="1.51"/><path d="M281,409L321,587L410,424Z" fill="#91d190" stroke="#91d190" stroke-width="1.51"/><path d="M788,-25L581,-92L622,49Z" fill="#aadca6" stroke="#aadca6" stroke-width="1.51"/><path d="M472,92L268,86L327,311Z" fill="#b2e1ab" stroke="#b2e1ab" stroke-width="1.51"/><path d="M581,-92L514,-102L622,49Z" fill="#b4e0ae" stroke="#b4e0ae" stroke-width="1.51"/><path d="M106,265L116,479L281,409Z" fill="#a8dba3" stroke="#a8dba3" stroke-width="1.51"/><path d="M632,778L828,830L800,670Z" fill="#51ac61" stroke="#51ac61" stroke-width="1.51"/><path d="M956,640L1171,608L968,492Z" fill="#47ab5e" stroke="#47ab5e" stroke-width="1.51"/><path d="M321,-76L268,86L472,92Z" fill="#bee6b7" stroke="#bee6b7" stroke-width="1.51"/><path d="M788,-25L630,-233L581,-92Z" fill="#b1dead" stroke="#b1dead" stroke-width="1.51"/><path d="M581,-92L630,-233L514,-102Z" fill="#bbe3b6" stroke="#bbe3b6" stroke-width="1.51"/><path d="M972,131L951,-97L859,82Z" fill="#8fcd92" stroke="#8fcd92" stroke-width="1.51"/><path d="M1126,54L951,-97L972,131Z" fill="#89c98e" stroke="#89c98e" stroke-width="1.51"/><path d="M301,745L409,783L450,670Z" fill="#74bd7b" stroke="#74bd7b" stroke-width="1.51"/><path d="M450,670L409,783L632,778Z" fill="#6ab873" stroke="#6ab873" stroke-width="1.51"/><path d="M663,978L845,935L828,830Z" fill="#449e55" stroke="#449e55" stroke-width="1.51"/><path d="M1130,323L1126,54L972,131Z" fill="#78bf7f" stroke="#78bf7f" stroke-width="1.51"/><path d="M1119,740L1171,608L956,640Z" fill="#3aa357" stroke="#3aa357" stroke-width="1.51"/><path d="M1124,450L1308,496L1130,323Z" fill="#54ac62" stroke="#54ac62" stroke-width="1.51"/><path d="M1339,-48L1135,-57L1126,54Z" fill="#83bf89" stroke="#83bf89" stroke-width="1.51"/><path d="M321,587L301,745L450,670Z" fill="#7bc381" stroke="#7bc381" stroke-width="1.51"/><path d="M149,746L301,745L321,587Z" fill="#81c587" stroke="#81c587" stroke-width="1.51"/><path d="M828,830L959,847L956,640Z" fill="#3fa358" stroke="#3fa358" stroke-width="1.51"/><path d="M845,935L959,847L828,830Z" fill="#3c9d54" stroke="#3c9d54" stroke-width="1.51"/><path d="M514,-102L321,-76L472,92Z" fill="#bde5b7" stroke="#bde5b7" stroke-width="1.51"/><path d="M959,847L1119,740L956,640Z" fill="#38a155" stroke="#38a155" stroke-width="1.51"/><path d="M838,-255L630,-233L788,-25Z" fill="#addcab" stroke="#addcab" stroke-width="1.51"/><path d="M514,-102L339,-201L321,-76Z" fill="#c8e9c2" stroke="#c8e9c2" stroke-width="1.51"/><path d="M281,409L116,479L321,587Z" fill="#97d396" stroke="#97d396" stroke-width="1.51"/><path d="M106,265L281,409L327,311Z" fill="#aadca4" stroke="#aadca4" stroke-width="1.51"/><path d="M106,265L327,311L268,86Z" fill="#b5e2ae" stroke="#b5e2ae" stroke-width="1.51"/><path d="M66,138L106,265L268,86Z" fill="#c0e7ba" stroke="#c0e7ba" stroke-width="1.51"/><path d="M1126,54L1135,-57L951,-97Z" fill="#8cc890" stroke="#8cc890" stroke-width="1.51"/><path d="M951,-97L838,-255L788,-25Z" fill="#a2d6a2" stroke="#a2d6a2" stroke-width="1.51"/><path d="M1291,118L1126,54L1130,323Z" fill="#73b97a" stroke="#73b97a" stroke-width="1.51"/><path d="M959,847L1144,952L1119,740Z" fill="#2c944c" stroke="#2c944c" stroke-width="1.51"/><path d="M663,978L828,830L632,778Z" fill="#4ea65c" stroke="#4ea65c" stroke-width="1.51"/><path d="M940,-286L838,-255L951,-97Z" fill="#a2d5a5" stroke="#a2d5a5" stroke-width="1.51"/><path d="M415,995L663,978L632,778Z" fill="#58a762" stroke="#58a762" stroke-width="1.51"/><path d="M415,995L632,778L409,783Z" fill="#64b06c" stroke="#64b06c" stroke-width="1.51"/><path d="M1171,608L1308,496L1124,450Z" fill="#47a55a" stroke="#47a55a" stroke-width="1.51"/><path d="M1306,593L1308,496L1171,608Z" fill="#3e9e55" stroke="#3e9e55" stroke-width="1.51"/><path d="M630,-233L490,-255L514,-102Z" fill="#c0e5ba" stroke="#c0e5ba" stroke-width="1.51"/><path d="M838,-255L490,-255L630,-233Z" fill="#b9e1b5" stroke="#b9e1b5" stroke-width="1.51"/><path d="M1334,259L1291,118L1130,323Z" fill="#68b270" stroke="#68b270" stroke-width="1.51"/><path d="M1308,496L1334,259L1130,323Z" fill="#59ab64" stroke="#59ab64" stroke-width="1.51"/><path d="M84,-23L66,138L268,86Z" fill="#caebc3" stroke="#caebc3" stroke-width="1.51"/><path d="M490,-255L339,-201L514,-102Z" fill="#c7e9c1" stroke="#c7e9c1" stroke-width="1.51"/><path d="M1308,496L1487,329L1334,259Z" fill="#54a45e" stroke="#54a45e" stroke-width="1.51"/><path d="M1315,744L1306,593L1171,608Z" fill="#31994f" stroke="#31994f" stroke-width="1.51"/><path d="M-27,326L-8,489L116,479Z" fill="#abdca7" stroke="#abdca7" stroke-width="1.51"/><path d="M84,-23L268,86L321,-76Z" fill="#cbebc4" stroke="#cbebc4" stroke-width="1.51"/><path d="M116,479L94,636L321,587Z" fill="#93d094" stroke="#93d094" stroke-width="1.51"/><path d="M340,978L415,995L409,783Z" fill="#68ae6e" stroke="#68ae6e" stroke-width="1.51"/><path d="M-8,489L94,636L116,479Z" fill="#9dd49d" stroke="#9dd49d" stroke-width="1.51"/><path d="M94,636L149,746L321,587Z" fill="#88ca8e" stroke="#88ca8e" stroke-width="1.51"/><path d="M838,-255L940,-286L490,-255Z" fill="#b1deaf" stroke="#b1deaf" stroke-width="1.51"/><path d="M1147,-263L940,-286L951,-97Z" fill="#9ad0a0" stroke="#9ad0a0" stroke-width="1.51"/><path d="M1147,-263L951,-97L1135,-57Z" fill="#93ca99" stroke="#93ca99" stroke-width="1.51"/><path d="M340,978L409,783L301,745Z" fill="#70b677" stroke="#70b677" stroke-width="1.51"/><path d="M845,935L949,1005L959,847Z" fill="#34974e" stroke="#34974e" stroke-width="1.51"/><path d="M1119,740L1315,744L1171,608Z" fill="#31984f" stroke="#31984f" stroke-width="1.51"/><path d="M784,1141L949,1005L845,935Z" fill="#35924a" stroke="#35924a" stroke-width="1.51"/><path d="M784,1141L845,935L663,978Z" fill="#40974f" stroke="#40974f" stroke-width="1.51"/><path d="M85,-196L84,-23L321,-76Z" fill="#d6efcf" stroke="#d6efcf" stroke-width="1.51"/><path d="M94,636L-17,665L149,746Z" fill="#8dca93" stroke="#8dca93" stroke-width="1.51"/><path d="M-27,326L116,479L106,265Z" fill="#b1dfac" stroke="#b1dfac" stroke-width="1.51"/><path d="M-27,326L106,265L66,138Z" fill="#bfe5b8" stroke="#bfe5b8" stroke-width="1.51"/><path d="M121,927L340,978L301,745Z" fill="#74b47a" stroke="#74b47a" stroke-width="1.51"/><path d="M-87,155L-27,326L66,138Z" fill="#c6e8bf" stroke="#c6e8bf" stroke-width="1.51"/><path d="M1144,952L1315,744L1119,740Z" fill="#289048" stroke="#289048" stroke-width="1.51"/><path d="M1484,465L1487,329L1308,496Z" fill="#499d56" stroke="#499d56" stroke-width="1.51"/><path d="M949,1005L1144,952L959,847Z" fill="#2a9149" stroke="#2a9149" stroke-width="1.51"/><path d="M1291,118L1339,-48L1126,54Z" fill="#7cb982" stroke="#7cb982" stroke-width="1.51"/><path d="M1511,-36L1339,-48L1291,118Z" fill="#79b27d" stroke="#79b27d" stroke-width="1.51"/><path d="M448,1173L649,1109L415,995Z" fill="#55995c" stroke="#55995c" stroke-width="1.51"/><path d="M415,995L649,1109L663,978Z" fill="#519e5a" stroke="#519e5a" stroke-width="1.51"/><path d="M949,1005L1165,1094L1144,952Z" fill="#208640" stroke="#208640" stroke-width="1.51"/><path d="M1363,-202L1147,-263L1135,-57Z" fill="#8ec293" stroke="#8ec293" stroke-width="1.51"/><path d="M-8,489L-17,665L94,636Z" fill="#99d19b" stroke="#99d19b" stroke-width="1.51"/><path d="M149,746L121,927L301,745Z" fill="#7ebd83" stroke="#7ebd83" stroke-width="1.51"/><path d="M-95,822L-17,665L-271,768Z" fill="#93c899" stroke="#93c899" stroke-width="1.51"/><path d="M1334,259L1544,145L1291,118Z" fill="#69ac6e" stroke="#69ac6e" stroke-width="1.51"/><path d="M1484,465L1308,496L1462,605Z" fill="#3d9850" stroke="#3d9850" stroke-width="1.51"/><path d="M649,1109L784,1141L663,978Z" fill="#44944f" stroke="#44944f" stroke-width="1.51"/><path d="M1462,605L1308,496L1306,593Z" fill="#399950" stroke="#399950" stroke-width="1.51"/><path d="M-27,326L-224,486L-8,489Z" fill="#b1dead" stroke="#b1dead" stroke-width="1.51"/><path d="M-74,-58L-87,155L66,138Z" fill="#d3eecd" stroke="#d3eecd" stroke-width="1.51"/><path d="M1315,744L1462,605L1306,593Z" fill="#2d944b" stroke="#2d944b" stroke-width="1.51"/><path d="M1449,740L1462,605L1315,744Z" fill="#268c45" stroke="#268c45" stroke-width="1.51"/><path d="M257,1128L448,1173L415,995Z" fill="#5f9d64" stroke="#5f9d64" stroke-width="1.51"/><path d="M-95,822L121,927L149,746Z" fill="#84be8a" stroke="#84be8a" stroke-width="1.51"/><path d="M84,-23L-74,-58L66,138Z" fill="#d5efce" stroke="#d5efce" stroke-width="1.51"/><path d="M339,-201L85,-196L321,-76Z" fill="#d4eece" stroke="#d4eece" stroke-width="1.51"/><path d="M490,-255L85,-196L339,-201Z" fill="#d3eecd" stroke="#d3eecd" stroke-width="1.51"/><path d="M784,1141L946,1159L949,1005Z" fill="#2e8744" stroke="#2e8744" stroke-width="1.51"/><path d="M1681,608L1626,406L1484,465Z" fill="#3b8c49" stroke="#3b8c49" stroke-width="1.51"/><path d="M1482,923L1449,740L1315,744Z" fill="#1c833e" stroke="#1c833e" stroke-width="1.51"/><path d="M1326,1018L1315,744L1144,952Z" fill="#1d843f" stroke="#1d843f" stroke-width="1.51"/><path d="M649,1109L448,1173L784,1141Z" fill="#488f50" stroke="#488f50" stroke-width="1.51"/><path d="M784,1141L448,1173L946,1159Z" fill="#3e8949" stroke="#3e8949" stroke-width="1.51"/><path d="M257,1128L415,995L340,978Z" fill="#65a66a" stroke="#65a66a" stroke-width="1.51"/><path d="M1339,-48L1363,-202L1135,-57Z" fill="#86bc8b" stroke="#86bc8b" stroke-width="1.51"/><path d="M1511,-36L1363,-202L1339,-48Z" fill="#80b584" stroke="#80b584" stroke-width="1.51"/><path d="M85,-196L-74,-58L84,-23Z" fill="#ddf2d7" stroke="#ddf2d7" stroke-width="1.51"/><path d="M1626,406L1487,329L1484,465Z" fill="#499753" stroke="#499753" stroke-width="1.51"/><path d="M1628,312L1544,145L1487,329Z" fill="#599c5f" stroke="#599c5f" stroke-width="1.51"/><path d="M1487,329L1544,145L1334,259Z" fill="#5fa565" stroke="#5fa565" stroke-width="1.51"/><path d="M946,1159L1165,1094L949,1005Z" fill="#22833f" stroke="#22833f" stroke-width="1.51"/><path d="M121,927L257,1128L340,978Z" fill="#6eaa72" stroke="#6eaa72" stroke-width="1.51"/><path d="M1544,145L1511,-36L1291,118Z" fill="#70ac74" stroke="#70ac74" stroke-width="1.51"/><path d="M-74,-58L-189,148L-87,155Z" fill="#d6efd0" stroke="#d6efd0" stroke-width="1.51"/><path d="M-87,155L-256,322L-27,326Z" fill="#c4e8bf" stroke="#c4e8bf" stroke-width="1.51"/><path d="M121,927L132,1115L257,1128Z" fill="#70a874" stroke="#70a874" stroke-width="1.51"/><path d="M-17,665L-95,822L149,746Z" fill="#8dc692" stroke="#8dc692" stroke-width="1.51"/><path d="M-224,486L-17,665L-8,489Z" fill="#a4d7a4" stroke="#a4d7a4" stroke-width="1.51"/><path d="M1277,1095L1326,1018L1144,952Z" fill="#147c38" stroke="#147c38" stroke-width="1.51"/><path d="M-256,322L-224,486L-27,326Z" fill="#bae2b6" stroke="#bae2b6" stroke-width="1.51"/><path d="M-95,822L-23,943L121,927Z" fill="#83ba88" stroke="#83ba88" stroke-width="1.51"/><path d="M1681,608L1462,605L1449,740Z" fill="#258842" stroke="#258842" stroke-width="1.51"/><path d="M1681,608L1484,465L1462,605Z" fill="#338d48" stroke="#338d48" stroke-width="1.51"/><path d="M1544,145L1663,51L1511,-36Z" fill="#6da370" stroke="#6da370" stroke-width="1.51"/><path d="M1626,406L1628,312L1487,329Z" fill="#4e9656" stroke="#4e9656" stroke-width="1.51"/><path d="M85,-196L-68,-203L-74,-58Z" fill="#e4f5de" stroke="#e4f5de" stroke-width="1.51"/><path d="M-74,-58L-196,-80L-189,148Z" fill="#def3d8" stroke="#def3d8" stroke-width="1.51"/><path d="M490,-255L-68,-203L85,-196Z" fill="#dcf2d6" stroke="#dcf2d6" stroke-width="1.51"/><path d="M1165,1094L1277,1095L1144,952Z" fill="#177d3a" stroke="#177d3a" stroke-width="1.51"/><path d="M946,1159L1277,1095L1165,1094Z" fill="#1a7939" stroke="#1a7939" stroke-width="1.51"/><path d="M-15,1102L132,1115L121,927Z" fill="#76ab79" stroke="#76ab79" stroke-width="1.51"/><path d="M257,1128L132,1115L448,1173Z" fill="#659b68" stroke="#659b68" stroke-width="1.51"/><path d="M-189,148L-256,322L-87,155Z" fill="#ccebc7" stroke="#ccebc7" stroke-width="1.51"/><path d="M-196,-80L-256,322L-189,148Z" fill="#d5eed0" stroke="#d5eed0" stroke-width="1.51"/><path d="M1326,1018L1482,923L1315,744Z" fill="#177e3b" stroke="#177e3b" stroke-width="1.51"/><path d="M1546,1154L1482,923L1326,1018Z" fill="#036f2e" stroke="#036f2e" stroke-width="1.51"/><path d="M1633,-212L1448,-273L1511,-36Z" fill="#80ae82" stroke="#80ae82" stroke-width="1.51"/><path d="M1511,-36L1448,-273L1363,-202Z" fill="#83b487" stroke="#83b487" stroke-width="1.51"/><path d="M1363,-202L1448,-273L1147,-263Z" fill="#8cbd91" stroke="#8cbd91" stroke-width="1.51"/><path d="M1147,-263L1448,-273L940,-286Z" fill="#94c69a" stroke="#94c69a" stroke-width="1.51"/><path d="M-68,-203L-196,-80L-74,-58Z" fill="#e6f5e0" stroke="#e6f5e0" stroke-width="1.51"/><path d="M-224,486L-283,599L-17,665Z" fill="#a3d6a6" stroke="#a3d6a6" stroke-width="1.51"/><path d="M-221,995L-15,1102L-23,943Z" fill="#81b284" stroke="#81b284" stroke-width="1.51"/><path d="M-256,322L-283,599L-224,486Z" fill="#b3deb1" stroke="#b3deb1" stroke-width="1.51"/><path d="M1788,224L1544,145L1628,312Z" fill="#59955e" stroke="#59955e" stroke-width="1.51"/><path d="M1788,224L1663,51L1544,145Z" fill="#629865" stroke="#629865" stroke-width="1.51"/><path d="M1682,825L1681,608L1449,740Z" fill="#1d7c3b" stroke="#1d7c3b" stroke-width="1.51"/><path d="M1826,450L1788,224L1628,312Z" fill="#4b8851" stroke="#4b8851" stroke-width="1.51"/><path d="M-23,943L-15,1102L121,927Z" fill="#7cb180" stroke="#7cb180" stroke-width="1.51"/><path d="M132,1115L-15,1102L448,1173Z" fill="#6c9f6e" stroke="#6c9f6e" stroke-width="1.51"/><path d="M-221,995L-23,943L-95,822Z" fill="#88ba8c" stroke="#88ba8c" stroke-width="1.51"/><path d="M-283,599L-271,768L-17,665Z" fill="#9acfa0" stroke="#9acfa0" stroke-width="1.51"/><path d="M1663,51L1655,-82L1511,-36Z" fill="#72a275" stroke="#72a275" stroke-width="1.51"/><path d="M-68,-203L-219,-206L-196,-80Z" fill="#eaf7e5" stroke="#eaf7e5" stroke-width="1.51"/><path d="M-196,-80L-219,-206L-256,322Z" fill="#e0f3da" stroke="#e0f3da" stroke-width="1.51"/><path d="M-256,322L-219,-206L-283,599Z" fill="#cceac7" stroke="#cceac7" stroke-width="1.51"/><path d="M490,-255L-219,-206L-68,-203Z" fill="#e2f4dc" stroke="#e2f4dc" stroke-width="1.51"/><path d="M1655,-82L1633,-212L1511,-36Z" fill="#79a67c" stroke="#79a67c" stroke-width="1.51"/><path d="M1482,923L1682,825L1449,740Z" fill="#157937" stroke="#157937" stroke-width="1.51"/><path d="M1660,921L1682,825L1482,923Z" fill="#0e6f31" stroke="#0e6f31" stroke-width="1.51"/><path d="M1790,576L1626,406L1681,608Z" fill="#338144" stroke="#338144" stroke-width="1.51"/><path d="M1826,450L1628,312L1626,406Z" fill="#458a4e" stroke="#458a4e" stroke-width="1.51"/><path d="M1663,51L1821,54L1655,-82Z" fill="#6b986e" stroke="#6b986e" stroke-width="1.51"/><path d="M1655,-82L1864,-205L1633,-212Z" fill="#779d7b" stroke="#779d7b" stroke-width="1.51"/><path d="M1869,743L1790,576L1681,608Z" fill="#21753b" stroke="#21753b" stroke-width="1.51"/><path d="M-271,768L-221,995L-95,822Z" fill="#8ec093" stroke="#8ec093" stroke-width="1.51"/><path d="M1682,825L1869,743L1681,608Z" fill="#1b7036" stroke="#1b7036" stroke-width="1.51"/><path d="M1665,1109L1660,921L1482,923Z" fill="#05682b" stroke="#05682b" stroke-width="1.51"/><path d="M1790,576L1826,450L1626,406Z" fill="#398045" stroke="#398045" stroke-width="1.51"/><path d="M1875,-24L1821,54L1788,224Z" fill="#639266" stroke="#639266" stroke-width="1.51"/><path d="M1788,224L1821,54L1663,51Z" fill="#619164" stroke="#619164" stroke-width="1.51"/><path d="M1893,1193L1546,1154L946,1159Z" fill="#026027" stroke="#026027" stroke-width="1.51"/><path d="M946,1159L1546,1154L1277,1095Z" fill="#117033" stroke="#117033" stroke-width="1.51"/><path d="M1277,1095L1546,1154L1326,1018Z" fill="#086d2f" stroke="#086d2f" stroke-width="1.51"/><path d="M-221,995L-226,1091L-15,1102Z" fill="#81ae84" stroke="#81ae84" stroke-width="1.51"/><path d="M-15,1102L-226,1091L448,1173Z" fill="#73a275" stroke="#73a275" stroke-width="1.51"/><path d="M-271,768L-226,1091L-221,995Z" fill="#8ab98f" stroke="#8ab98f" stroke-width="1.51"/><path d="M1546,1154L1665,1109L1482,923Z" fill="#006429" stroke="#006429" stroke-width="1.51"/><path d="M1865,978L1869,743L1682,825Z" fill="#10652f" stroke="#10652f" stroke-width="1.51"/><path d="M1790,576L1869,743L1826,450Z" fill="#2a793e" stroke="#2a793e" stroke-width="1.51"/><path d="M1821,54L1875,-24L1655,-82Z" fill="#6c956e" stroke="#6c956e" stroke-width="1.51"/><path d="M1826,450L1875,-24L1788,224Z" fill="#578d5a" stroke="#578d5a" stroke-width="1.51"/><path d="M1865,978L1682,825L1660,921Z" fill="#0b632c" stroke="#0b632c" stroke-width="1.51"/><path d="M1826,450L1869,743L1875,-24Z" fill="#43854b" stroke="#43854b" stroke-width="1.51"/><path d="M1875,-24L1864,-205L1655,-82Z" fill="#729874" stroke="#729874" stroke-width="1.51"/><path d="M1633,-212L1864,-205L1448,-273Z" fill="#7da480" stroke="#7da480" stroke-width="1.51"/><path d="M1665,1109L1865,978L1660,921Z" fill="#025d26" stroke="#025d26" stroke-width="1.51"/><path d="M1665,1109L1893,1193L1865,978Z" fill="#005221" stroke="#005221" stroke-width="1.51"/><path d="M1865,978L1893,1193L1869,743Z" fill="#055c27" stroke="#055c27" stroke-width="1.51"/><path d="M1869,743L1893,1193L1875,-24Z" fill="#22763b" stroke="#22763b" stroke-width="1.51"/><path d="M1546,1154L1893,1193L1665,1109Z" fill="#005020" stroke="#005020" stroke-width="1.51"/><path d="M448,1173L1893,1193L946,1159Z" fill="#1b7438" stroke="#1b7438" stroke-width="1.51"/></svg>